<?xml version="1.0" standalone="no"?><!DOCTYPE svg PUBLIC "-//W3C//DTD SVG 1.1//EN" "http://www.w3.org/Graphics/SVG/1.1/DTD/svg11.dtd"><svg t="1640678098617" class="icon" viewBox="0 0 1024 1024" version="1.1" xmlns="http://www.w3.org/2000/svg" p-id="8817" width="32" height="32" xmlns:xlink="http://www.w3.org/1999/xlink"><defs><style type="text/css"></style></defs><path d="M120 272h144a8 8 0 0 0 8-8v-144a8 8 0 0 0-8-8H144a32 32 0 0 0-32 32v120c0 4.416 3.584 8 8 8zM592 120a8 8 0 0 0-8-8h-144a8 8 0 0 0-8 8V272h160V120z m320 144V144a32 32 0 0 0-32-32h-120a8 8 0 0 0-8 8V272h152a8 8 0 0 0 8-8z m-640 8h160v160h-160v-160z m320 0h160v160h-160v-160z m-472 160a8 8 0 0 0-8 8v144c0 4.416 3.584 8 8 8H272v-160H120z m312 0h160v160h-160v-160z m472 160a8 8 0 0 0 8-8v-144a8 8 0 0 0-8-8H752v160h152zM112 760v120a32 32 0 0 0 32 32h120a8 8 0 0 0 8-8V752H120a8 8 0 0 0-8 8z m320 144c0 4.416 3.584 8 8 8h144a8 8 0 0 0 8-8V752h-160v152z m328 8h120a32 32 0 0 0 32-32v-120a8 8 0 0 0-8-8H752v152c0 4.416 3.584 8 8 8z m-488-320h160v160h-160v-160z m320 0h160v160h-160v-160z" p-id="8818" fill="#515151"></path></svg>