<?xml version="1.0" standalone="no"?><!DOCTYPE svg PUBLIC "-//W3C//DTD SVG 1.1//EN" "http://www.w3.org/Graphics/SVG/1.1/DTD/svg11.dtd"><svg t="1642141166912" class="icon" viewBox="0 0 1024 1024" version="1.1" xmlns="http://www.w3.org/2000/svg" p-id="17550" width="32" height="32" xmlns:xlink="http://www.w3.org/1999/xlink"><defs><style type="text/css"></style></defs><path d="M64 224c0-17.672 14.328-32 32-32h832c17.672 0 32 14.328 32 32v64c0 17.672-14.328 32-32 32H96c-17.672 0-32-14.328-32-32z m0 256c0-17.672 14.328-32 32-32h320c17.672 0 32 14.328 32 32v64c0 17.672-14.328 32-32 32H96c-17.672 0-32-14.328-32-32z m0 256c0-17.672 14.328-32 32-32h64c17.672 0 32 14.328 32 32v64c0 17.672-14.328 32-32 32H96c-17.672 0-32-14.328-32-32z m512 0c0-17.672 14.328-32 32-32h64c17.672 0 32 14.328 32 32v64c0 17.672-14.328 32-32 32h-64c-17.672 0-32-14.328-32-32z m-256 0c0-17.672 14.328-32 32-32h64c17.672 0 32 14.328 32 32v64c0 17.672-14.328 32-32 32h-64c-17.672 0-32-14.328-32-32z m512 0c0-17.672 14.328-32 32-32h64c17.672 0 32 14.328 32 32v64c0 17.672-14.328 32-32 32h-64c-17.672 0-32-14.328-32-32zM576 480c0-17.672 14.328-32 32-32h320c17.672 0 32 14.328 32 32v64c0 17.672-14.328 32-32 32H608c-17.672 0-32-14.328-32-32z m0 0" p-id="17551" fill="#515151"></path></svg>